<?xml version="1.0" standalone="no"?>
<!DOCTYPE svg PUBLIC "-//W3C//DTD SVG 20010904//EN"
 "http://www.w3.org/TR/2001/REC-SVG-20010904/DTD/svg10.dtd">
<svg version="1.0" xmlns="http://www.w3.org/2000/svg"
 width="581.000000pt" height="357.000000pt" viewBox="0 0 581.000000 357.000000"
 preserveAspectRatio="xMidYMid meet">

<g transform="translate(0.000000,357.000000) scale(0.100000,-0.100000)"
fill="#000000" stroke="none">
<path d="M4517 2953 c-79 -103 -147 -224 -225 -403 -31 -70 -65 -181 -58 -187
11 -11 22 9 50 92 36 104 112 260 181 370 30 48 55 90 55 95 0 4 14 26 30 48
46 64 17 50 -33 -15z"/>
<path d="M4384 2896 l-105 -103 -98 -6 c-54 -3 -104 -1 -111 3 -8 5 -26 2 -44
-7 -39 -19 -147 -124 -140 -135 3 -4 17 -8 31 -8 25 0 26 0 19 -62 -4 -35 -9
-78 -13 -95 -4 -27 -2 -33 12 -33 26 0 -32 -45 -78 -59 -40 -13 -41 -31 -2
-31 28 0 37 -11 26 -29 -5 -7 -23 -11 -47 -9 l-39 3 0 -65 c0 -65 0 -65 30
-68 17 -2 34 -8 39 -13 6 -5 20 -9 33 -9 16 0 23 -6 23 -18 0 -15 6 -18 29
-14 16 2 38 -1 49 -7 29 -15 23 -77 -9 -103 -23 -18 -23 -19 -5 -33 17 -13 21
-12 36 8 13 16 17 38 16 80 -2 57 -1 58 36 79 21 12 38 25 38 28 0 14 -39 42
-49 35 -6 -3 -11 -2 -11 3 0 13 61 72 93 88 30 16 31 31 4 48 -24 15 -43 0
-75 -59 -15 -27 -28 -52 -29 -54 -2 -2 -6 -1 -9 2 -11 11 65 218 106 290 70
121 244 334 333 408 37 30 47 49 26 49 -5 0 -57 -47 -115 -104z m-234 -280 c0
-2 -7 -9 -15 -16 -13 -11 -14 -10 -9 4 5 14 24 23 24 12z m-40 -57 c-7 -11
-14 -18 -17 -15 -3 3 0 12 7 21 18 21 23 19 10 -6z m-98 -165 c-28 -57 -38
-70 -40 -54 -3 18 61 130 73 130 2 0 -13 -34 -33 -76z m-27 -114 c3 -5 -1 -10
-10 -10 -9 0 -13 5 -10 10 3 6 8 10 10 10 2 0 7 -4 10 -10z"/>
<path d="M4925 2927 c-47 -32 -105 -90 -105 -104 0 -8 12 -13 29 -13 46 0 50
-14 35 -135 -17 -147 -40 -576 -31 -599 12 -31 67 35 81 97 9 44 16 54 44 66
31 14 32 16 32 81 0 65 0 67 -33 82 -21 10 -39 13 -48 8 -8 -5 -19 -4 -26 2
-11 9 -11 15 2 35 9 13 14 27 11 31 -6 11 26 60 51 77 18 13 21 26 22 122 1
60 6 112 12 118 15 15 11 93 -7 120 -22 33 -36 36 -69 12z"/>
<path d="M4632 2878 c-69 -106 -212 -418 -192 -418 13 0 36 38 44 74 10 41
128 285 163 337 42 62 45 69 35 69 -5 0 -28 -28 -50 -62z"/>
<path d="M3812 2890 c7 -10 14 -18 15 -16 6 6 -9 36 -18 36 -5 0 -4 -9 3 -20z"/>
<path d="M3733 2855 c-55 -38 -238 -362 -277 -490 -11 -33 -21 -66 -24 -72 -2
-7 0 -13 5 -13 5 0 24 39 43 88 18 48 46 114 62 147 60 119 169 295 200 318
33 26 25 46 -9 22z"/>
<path d="M3584 2742 l-99 -98 -78 2 -78 2 -54 -50 c-60 -54 -66 -67 -35 -75
23 -6 23 -2 9 -97 -10 -66 -14 -75 -35 -80 -14 -4 -30 -18 -36 -31 -6 -14 -20
-26 -32 -26 -17 -1 -18 -2 -3 -6 9 -2 17 -11 17 -20 0 -11 -8 -14 -31 -11 -22
4 -33 0 -40 -14 -5 -10 -7 -24 -3 -30 5 -7 7 -24 6 -39 -2 -24 3 -27 52 -38
64 -14 72 -30 43 -81 l-19 -35 21 25 c11 14 23 33 27 43 8 25 39 17 38 -11 0
-12 5 -22 13 -22 7 0 13 11 13 23 0 17 10 29 35 43 38 20 38 19 25 49 -7 18
-9 18 -15 3 -4 -10 -13 -14 -22 -11 -8 3 -19 0 -24 -8 -5 -8 -9 -9 -9 -3 0 6
7 17 15 24 8 7 12 16 9 21 -15 26 73 235 142 336 55 80 192 243 205 243 10 0
53 60 46 66 -2 3 -49 -39 -103 -94z m-318 -455 c-17 -39 -21 -58 -13 -66 13
-13 3 -26 -12 -16 -17 10 -13 37 15 94 34 68 42 60 10 -12z"/>
<path d="M3166 2752 c-2 -4 4 -8 14 -8 10 0 16 4 14 8 -3 4 -9 8 -14 8 -5 0
-11 -4 -14 -8z"/>
<path d="M3753 2719 c-49 -72 -173 -333 -173 -365 0 -22 31 26 45 68 20 61
102 227 139 282 15 21 25 43 23 49 -2 6 -17 -9 -34 -34z"/>
<path d="M3090 2653 c-73 -99 -210 -375 -210 -425 0 -23 20 7 36 55 36 110
161 338 218 399 14 15 21 30 16 33 -5 3 -32 -25 -60 -62z"/>
<path d="M3034 2625 c-54 -60 -61 -65 -95 -63 -41 2 -106 -35 -133 -77 -14
-21 -14 -23 6 -28 19 -5 20 -10 13 -74 -3 -37 -12 -77 -19 -88 -23 -38 -46
-112 -40 -129 3 -9 1 -16 -4 -16 -18 0 -20 12 -12 68 8 65 -10 81 -45 40 -12
-14 -31 -28 -41 -31 -17 -4 -17 -5 -1 -6 9 0 17 -8 17 -17 0 -13 -7 -15 -30
-10 l-31 6 4 -47 c5 -49 10 -55 71 -68 23 -5 27 -10 23 -30 -5 -30 9 -33 18
-5 4 11 11 18 16 15 5 -4 12 1 15 9 3 9 9 14 14 11 4 -2 16 2 26 10 17 13 17
14 2 15 -9 0 -19 -6 -21 -12 -4 -10 -6 -9 -6 1 -1 11 -4 11 -18 0 -15 -12 -16
-12 -8 1 4 8 14 22 20 30 7 8 25 53 39 100 40 123 117 251 239 393 28 31 48
60 45 63 -3 3 -32 -25 -64 -61z"/>
<path d="M2663 2574 l-61 -54 -104 0 c-109 0 -118 -3 -174 -55 -26 -24 -25
-45 2 -45 12 0 14 -7 10 -27 -3 -16 -8 -54 -12 -85 -6 -56 -5 -58 17 -58 l22
0 -24 -26 c-13 -14 -24 -33 -24 -42 0 -11 -8 -17 -22 -17 -13 0 -23 -3 -23 -7
-2 -69 1 -78 20 -78 17 0 20 -7 20 -44 0 -25 -4 -48 -10 -51 -5 -3 -10 -10
-10 -15 0 -24 41 28 47 60 6 33 7 34 14 10 4 -16 7 -19 8 -7 1 9 6 17 11 17 6
0 10 6 10 14 0 7 9 24 19 38 11 13 27 53 36 89 24 92 134 278 202 340 l26 24
-27 -45 c-71 -118 -143 -285 -134 -311 2 -7 19 29 37 79 18 50 54 128 82 173
27 45 49 85 49 88 0 3 16 22 36 42 57 58 24 53 -43 -7z m-273 -414 c-5 -22 -8
-27 -9 -13 -1 21 9 56 14 51 2 -2 0 -19 -5 -38z"/>
<path d="M3126 2587 c-76 -131 -157 -307 -140 -307 3 0 16 26 30 58 35 78 85
177 118 235 15 26 24 47 19 47 -4 0 -16 -15 -27 -33z"/>
<path d="M857 2593 c-16 -8 -30 -20 -32 -26 -14 -52 -27 -128 -22 -133 3 -3
21 6 40 20 39 30 47 32 47 12 0 -8 8 -17 18 -21 16 -6 16 -7 -1 -20 -26 -19
-9 -25 81 -34 95 -9 155 1 194 34 16 14 34 25 39 25 6 0 8 4 5 9 -3 5 14 14
39 20 25 6 45 16 45 21 0 6 -4 10 -10 10 -5 0 -10 5 -10 10 0 6 7 10 15 10 8
0 15 4 15 9 0 20 -66 -4 -99 -36 -7 -8 -20 -12 -28 -9 -8 3 -24 6 -35 6 -20 0
-20 1 -4 19 13 15 14 20 4 24 -7 3 -3 6 8 6 19 1 34 18 34 40 0 3 -18 5 -41 3
-30 -3 -45 -11 -61 -33 -15 -20 -30 -29 -50 -29 -15 0 -28 5 -28 10 0 6 -9 10
-20 10 -13 0 -18 5 -13 15 3 9 2 15 -3 14 -5 -1 -26 5 -46 14 -43 20 -44 20
-81 0z"/>
<path d="M2202 2528 c-29 -29 -59 -63 -67 -75 -9 -12 -35 -31 -58 -41 -48 -22
-89 -62 -69 -69 20 -8 14 -54 -15 -110 -16 -29 -31 -53 -35 -53 -5 0 -8 14 -8
31 0 26 -3 30 -17 24 -10 -4 -30 -12 -45 -17 -30 -11 -38 -28 -13 -28 8 0 15
-4 15 -10 0 -5 -9 -10 -21 -10 -18 0 -20 -4 -14 -32 10 -45 13 -48 40 -48 32
0 37 -11 22 -49 -8 -23 -16 -30 -29 -25 -13 4 -18 0 -18 -15 0 -24 19 -38 30
-21 4 7 16 9 29 5 11 -3 21 -3 22 2 1 4 2 22 4 40 2 20 15 44 39 67 20 20 36
45 36 56 0 10 3 27 6 37 6 15 4 16 -7 6 -39 -37 -32 10 16 107 33 65 115 183
122 176 2 -2 -12 -32 -31 -67 -48 -87 -89 -200 -78 -211 6 -6 11 5 15 25 10
61 118 270 164 319 15 15 24 30 21 33 -2 3 -28 -19 -56 -47z m-182 -372 c0 -3
-4 -8 -10 -11 -5 -3 -10 -1 -10 4 0 6 5 11 10 11 6 0 10 -2 10 -4z"/>
<path d="M2673 2433 c-62 -119 -90 -185 -70 -163 8 8 21 35 30 60 9 25 37 80
61 123 24 42 41 77 37 77 -4 0 -31 -44 -58 -97z"/>
<path d="M1383 2509 c-30 -11 -30 -39 0 -39 22 0 47 16 47 31 0 12 -25 17 -47
8z"/>
<path d="M1336 2495 c-3 -8 -1 -15 4 -15 6 0 10 7 10 15 0 8 -2 15 -4 15 -2 0
-6 -7 -10 -15z"/>
<path d="M1893 2415 c-29 -33 -56 -55 -69 -55 -36 0 -71 -49 -78 -110 l-6 -55
36 60 c40 66 73 107 84 100 3 -2 15 10 25 28 10 18 29 44 43 60 14 15 23 27
19 27 -3 0 -27 -25 -54 -55z"/>
<path d="M1330 2409 c0 -6 -9 -8 -22 -4 -18 5 -20 4 -7 -4 18 -12 62 -3 53 10
-7 12 -24 11 -24 -2z"/>
<path d="M1581 2404 c-37 -26 -102 -186 -81 -199 5 -3 22 18 40 46 17 28 39
53 48 56 10 2 29 23 44 45 22 34 24 44 13 55 -18 17 -36 16 -64 -3z"/>
<path d="M2160 2328 c0 -3 -7 -22 -15 -42 -8 -20 -13 -36 -10 -36 9 0 37 71
31 78 -3 3 -6 3 -6 0z"/>
<path d="M3335 2257 c-32 -57 -32 -77 1 -38 14 17 32 31 39 31 18 0 26 25 12
39 -18 18 -25 14 -52 -32z"/>
<path d="M826 2281 c-3 -5 10 -9 31 -9 24 0 32 3 22 9 -18 11 -46 11 -53 0z"/>
<path d="M4296 2274 c-4 -9 -2 -22 4 -29 11 -13 -7 -33 -48 -54 -22 -12 -22
-13 -5 -36 10 -13 21 -25 24 -25 4 0 18 17 32 38 21 30 25 44 20 80 -6 44 -16
54 -27 26z"/>
<path d="M1220 2262 c-20 -16 -20 -19 -7 -45 l14 -27 15 22 c37 57 40 68 19
68 -10 0 -29 -8 -41 -18z"/>
<path d="M1390 2260 c-11 -11 -20 -27 -20 -35 0 -9 -9 -15 -24 -15 -14 0 -28
-4 -31 -10 -3 -5 -1 -10 4 -10 6 0 11 -7 11 -15 0 -8 -7 -15 -15 -15 -16 0
-19 -9 -9 -34 9 -23 41 -20 49 4 4 11 18 26 32 34 16 8 27 23 28 37 1 13 5 36
10 52 9 33 -6 36 -35 7z"/>
<path d="M4590 2237 c0 -15 27 -57 48 -74 25 -21 37 -15 14 6 -12 10 -22 27
-22 38 0 19 -17 43 -32 43 -4 0 -8 -6 -8 -13z"/>
<path d="M2837 2220 c-9 -13 -14 -26 -12 -29 9 -8 38 26 33 40 -3 8 -10 5 -21
-11z"/>
<path d="M996 2211 c-13 -14 -15 -24 -8 -38 17 -31 2 -71 -37 -100 -46 -35
-51 -43 -44 -71 3 -12 -1 -30 -8 -39 -8 -9 -21 -39 -29 -67 -9 -29 -22 -52
-30 -52 -8 -1 -21 -2 -27 -3 -8 -1 -14 -18 -15 -43 -1 -38 -2 -39 -5 -10 -5
37 -26 51 -49 32 -12 -10 -14 -32 -13 -99 2 -47 -1 -109 -5 -137 -8 -46 -6
-53 14 -72 12 -11 57 -30 101 -42 43 -11 100 -30 126 -42 26 -11 112 -38 190
-59 79 -22 157 -46 173 -54 16 -8 35 -15 43 -15 8 0 54 -14 103 -31 49 -17
118 -37 154 -45 93 -20 153 -36 165 -44 6 -3 39 -14 75 -24 36 -10 80 -24 98
-32 42 -18 217 -64 244 -64 10 0 17 -4 14 -9 -3 -5 17 -13 44 -18 27 -6 47 -6
44 -2 -3 5 7 4 21 -1 15 -6 44 -10 65 -10 21 0 42 -5 45 -10 3 -6 26 -15 50
-21 25 -6 42 -15 39 -20 -3 -5 5 -14 18 -19 22 -10 22 -10 -4 -7 -16 3 -28 1
-28 -4 0 -8 88 -29 210 -50 41 -7 81 -19 88 -26 7 -7 20 -13 27 -13 8 0 51
-12 97 -26 46 -14 89 -27 96 -30 7 -2 14 -2 16 -1 1 1 9 -3 17 -9 20 -16 315
-108 588 -184 36 -10 100 -30 141 -45 87 -30 154 -41 338 -55 72 -5 142 -15
154 -21 16 -9 77 -10 216 -6 163 4 197 8 212 22 11 10 26 15 35 11 18 -7 29
17 38 81 4 37 2 42 -18 47 -38 10 -50 63 -50 216 0 74 5 162 12 195 7 33 15
82 18 108 5 37 15 58 42 88 25 28 39 37 46 30 14 -14 23 -299 9 -313 -5 -5 -7
-36 -5 -71 3 -36 0 -81 -8 -107 -7 -25 -13 -72 -14 -105 -1 -33 -5 -90 -9
-127 -7 -67 -7 -67 18 -74 48 -12 111 5 142 37 28 30 29 33 32 155 3 103 1
129 -13 150 -10 16 -14 36 -11 52 3 15 0 56 -8 92 -8 36 -11 83 -8 105 10 78
7 192 -6 208 -10 12 -11 21 -3 35 8 16 7 21 -5 26 -12 5 -13 9 -2 28 7 13 13
59 15 103 1 45 6 92 12 106 5 14 6 31 2 38 -4 7 -3 30 3 52 9 35 8 42 -7 50
-9 6 -17 17 -17 25 0 13 -3 13 -28 0 -19 -10 -32 -28 -40 -54 -7 -22 -19 -45
-26 -52 -8 -6 -12 -19 -10 -28 4 -11 -1 -9 -15 7 -12 13 -21 36 -21 52 0 44
-27 100 -50 106 -17 5 -20 11 -15 34 6 26 3 29 -33 38 -21 6 -47 21 -58 32
-10 12 -36 32 -56 45 -21 14 -38 29 -38 34 0 16 27 12 46 -7 32 -32 62 -43 75
-27 6 7 9 20 6 28 -13 32 75 36 97 4 l15 -21 11 27 c12 34 13 56 1 56 -5 0
-11 -7 -15 -15 -7 -19 -36 -20 -36 -1 0 8 14 20 30 28 23 10 30 19 30 41 0 27
-2 28 -32 21 -52 -12 -77 -6 -144 30 l-63 35 -6 -29 c-4 -16 -4 -34 -1 -39 4
-5 2 -13 -4 -16 -8 -5 -7 -11 2 -22 10 -12 8 -18 -11 -33 -16 -11 -21 -22 -16
-30 5 -8 -3 -5 -17 5 -13 11 -32 38 -42 62 -17 42 -36 57 -36 29 0 -22 22 -80
38 -98 12 -14 13 -36 8 -113 -8 -105 -22 -155 -60 -212 -15 -21 -26 -43 -26
-50 0 -6 -9 -15 -21 -18 -27 -9 -55 17 -70 64 -14 44 -28 63 -41 55 -5 -3 -15
0 -23 6 -17 14 -21 35 -5 25 6 -3 13 1 17 11 6 16 -19 44 -38 44 -10 0 -29
-58 -24 -73 6 -17 -10 -41 -23 -33 -7 4 -4 25 9 58 24 66 24 81 -1 103 -20 18
-22 18 -62 -4 -26 -14 -44 -18 -46 -12 -7 20 -32 12 -41 -13 -5 -13 -7 -41 -4
-63 5 -35 2 -40 -21 -51 -14 -6 -26 -16 -26 -22 0 -14 -61 -50 -85 -50 l-20 1
20 11 c56 30 66 39 56 52 -5 6 -11 37 -13 68 l-3 57 -35 -31 c-19 -16 -27 -27
-17 -24 9 3 17 2 17 -3 0 -13 -40 -61 -52 -61 -5 0 -21 -9 -35 -20 -33 -26
-43 -25 -43 2 0 21 0 21 -14 2 -9 -12 -11 -23 -5 -30 6 -7 6 -21 0 -35 -8 -22
-9 -21 -16 16 -14 84 -17 94 -30 105 -19 16 -35 -17 -42 -86 -4 -36 -9 -51
-17 -47 -19 12 -36 12 -37 0 -2 -23 -17 38 -18 73 l-1 35 -19 -25 c-11 -13
-18 -27 -15 -31 2 -4 -3 -10 -12 -13 -8 -3 -12 -10 -9 -16 9 -14 -1 -13 -34 4
-19 10 -32 29 -41 58 -12 40 -14 41 -21 18 -6 -23 -7 -23 -8 -3 -1 12 -5 25
-11 28 -5 3 -10 13 -10 22 0 13 3 13 15 3 12 -10 15 -9 15 7 0 10 -9 26 -19
35 -19 16 -20 15 -26 -15 -9 -47 -26 -87 -34 -82 -10 6 22 132 37 147 7 7 12
19 12 28 0 12 -2 12 -9 2 -7 -11 -9 -11 -14 2 -10 26 -30 18 -55 -19 -44 -69
-57 -34 -17 45 l25 49 -36 -24 c-20 -14 -42 -25 -49 -25 -7 0 -18 -14 -24 -31
-9 -27 -8 -32 8 -36 13 -3 20 -17 24 -46 7 -47 -8 -67 -51 -67 -22 0 -24 -3
-19 -30 4 -16 3 -29 -1 -28 -12 4 -72 -24 -72 -33 0 -5 13 -3 30 6 27 14 29
14 23 -2 -5 -13 -2 -15 11 -10 10 4 15 3 11 -3 -4 -6 -12 -9 -18 -8 -20 4 -67
-33 -67 -53 0 -13 5 -16 16 -12 8 3 13 11 11 17 -3 6 6 12 19 13 53 5 59 6 72
16 9 7 12 4 12 -12 0 -12 -6 -21 -15 -21 -8 0 -15 -4 -15 -8 0 -5 -18 -28 -40
-52 -38 -41 -58 -80 -24 -46 16 17 54 22 54 8 0 -12 -52 -58 -72 -65 -10 -4
-18 -13 -18 -22 0 -21 9 -19 31 6 10 11 22 18 27 15 13 -8 48 36 63 80 l13 39
6 -30 c6 -29 6 -28 18 17 7 28 20 52 32 58 11 6 20 16 20 23 0 7 10 23 21 37
l20 25 -5 -30 c-14 -89 -16 -131 -6 -240 6 -66 18 -143 27 -172 13 -41 14 -55
4 -66 -18 -22 -99 -13 -173 19 -73 32 -89 43 -56 38 67 -9 208 -12 208 -3 0 5
-40 9 -88 9 -61 0 -94 4 -108 14 -23 17 -17 20 66 34 44 8 48 10 20 11 -19 0
-51 -3 -71 -8 -51 -12 -69 1 -69 49 0 21 -7 65 -16 97 -24 81 -29 153 -13 153
9 0 8 4 -3 13 -8 6 -18 22 -21 35 -4 17 -2 21 6 13 14 -11 21 38 12 77 -5 20
-8 22 -20 12 -12 -10 -15 -8 -15 11 0 13 -5 31 -10 39 -9 13 -11 13 -20 0 -5
-8 -10 -28 -11 -45 -1 -36 -17 -89 -18 -62 -1 9 -5 17 -11 17 -5 0 -10 14 -10
30 0 17 -4 30 -10 30 -5 0 -10 -9 -10 -19 0 -54 -23 -64 -70 -29 -27 19 -30
28 -30 74 0 29 -4 56 -10 59 -5 3 -10 -1 -10 -10 0 -9 -8 -28 -17 -42 -23 -34
-31 -266 -13 -370 21 -123 23 -153 12 -153 -15 0 -23 28 -9 34 7 4 1 4 -13 2
-14 -3 -41 -1 -60 4 -33 8 -33 8 18 9 51 1 76 19 26 19 -34 0 -109 52 -110 77
-1 11 -12 61 -24 110 -12 50 -24 106 -26 125 -14 137 -19 160 -34 160 -5 0
-11 -13 -15 -29 -8 -37 -28 -45 -65 -26 -26 13 -29 21 -32 67 -3 50 -4 51 -15
26 -7 -14 -17 -29 -22 -33 -6 -3 -11 -17 -11 -31 0 -29 -16 -32 -23 -4 -6 25
-32 26 -41 3 -9 -24 -31 -62 -45 -76 -6 -6 -11 -15 -11 -21 0 -5 9 1 19 13 11
13 25 20 30 16 13 -8 15 -35 2 -35 -5 0 -12 -11 -15 -25 -4 -14 -10 -23 -15
-20 -18 10 -21 -28 -4 -41 16 -11 19 -9 27 14 5 15 14 34 21 42 7 8 18 32 25
53 6 21 14 36 17 34 2 -3 6 -63 7 -133 2 -95 7 -137 19 -160 9 -17 13 -41 10
-53 -5 -20 -7 -21 -24 -5 -10 9 -26 13 -37 10 -10 -4 -30 -2 -43 3 -20 8 -15
10 31 12 l55 1 -55 10 c-30 6 -61 15 -67 20 -7 6 -13 33 -14 62 0 28 -4 69 -8
91 l-9 40 -1 -35 c-14 -296 -20 -370 -32 -370 -20 0 -1 388 20 414 11 13 -3
146 -19 176 -13 24 -13 73 0 86 8 8 -3 21 -34 45 -25 19 -45 41 -45 49 0 12 2
12 13 -2 18 -25 35 -23 29 3 -7 27 -26 34 -52 19 -22 -11 -23 -11 -47 55 -7
19 -7 19 -12 1 -2 -10 4 -33 14 -51 15 -28 16 -40 6 -86 -6 -30 -16 -67 -23
-84 -7 -16 -12 -33 -11 -37 2 -10 -11 -10 -32 -2 -10 4 -16 18 -16 39 0 19 -7
41 -16 49 -14 15 -14 21 5 76 25 73 25 70 2 70 -25 0 -52 -26 -45 -44 3 -7 -2
-18 -10 -25 -7 -6 -12 -20 -9 -30 3 -13 -11 -34 -46 -68 -53 -52 -66 -79 -32
-68 21 6 38 -10 21 -20 -5 -3 -10 -17 -10 -31 0 -13 -4 -24 -9 -24 -5 0 -12
-8 -14 -17 -3 -10 -5 2 -6 26 -1 49 -20 121 -32 121 -4 0 -11 -25 -15 -56 -5
-43 -10 -54 -21 -50 -8 3 -21 6 -28 6 -8 0 -19 18 -25 40 -12 46 -27 52 -36
14 -10 -39 3 -279 16 -303 9 -17 8 -22 -5 -27 -26 -10 -65 13 -66 38 0 21 -1
22 -8 3 -6 -15 -9 -11 -14 20 -4 22 -7 54 -8 70 -1 57 -18 -5 -18 -71 -1 -73
-10 -124 -22 -124 -5 0 -9 29 -9 65 0 36 -4 65 -9 65 -12 0 -36 75 -56 170 -8
41 -18 86 -21 100 -15 55 -21 -36 -11 -163 12 -150 9 -158 -52 -128 -29 15
-41 28 -41 44 0 18 -2 19 -10 7 -5 -8 -10 -34 -10 -57 0 -24 -5 -43 -11 -43
-13 0 -10 151 4 193 6 18 5 53 -3 100 -20 120 -37 261 -33 272 2 6 22 10 45 8
54 -3 78 11 78 45 -1 15 2 39 6 55 9 36 -9 35 -36 -2 -11 -16 -30 -31 -43 -33
-15 -2 -21 -9 -19 -20 2 -10 -3 -18 -11 -18 -7 0 -23 -13 -35 -30 -13 -16 -29
-30 -37 -30 -8 0 -15 -4 -15 -9 0 -5 -3 -17 -7 -27 -5 -14 -3 -16 11 -11 13 5
19 1 23 -13 3 -11 10 -20 15 -20 5 0 8 -15 6 -32 -2 -28 -7 -33 -28 -33 -22 0
-26 -6 -32 -50 -4 -28 -4 -85 -1 -127 5 -68 3 -79 -12 -84 -23 -9 -31 7 -51
96 -26 120 -36 117 -28 -7 7 -120 6 -122 -41 -101 -26 12 -27 16 -30 113 -3
86 -20 138 -50 152 -22 10 -27 8 -40 -10 -13 -19 -17 -20 -25 -7 -16 26 -31
-4 -28 -56 2 -36 7 -50 20 -52 13 -2 18 6 21 35 2 22 4 14 3 -17 -1 -35 -9
-66 -21 -84 -18 -26 -20 -28 -23 -10 -2 10 -8 23 -13 28 -5 6 -9 28 -9 51 0
22 -6 65 -14 95 -12 47 -12 60 0 95 7 22 14 48 14 57 0 10 14 25 30 33 27 14
34 14 60 2 16 -8 31 -13 33 -10 7 6 -4 43 -13 43 -14 0 -1 111 17 141 16 26
16 31 3 39 -22 14 -35 12 -54 -9z m3665 -199 c-7 -2 -18 1 -23 6 -8 8 -4 9 13
5 13 -4 18 -8 10 -11z m-2679 -384 c2 -47 0 -84 -4 -81 -5 2 -8 19 -9 36 0 18
-3 25 -6 17 -13 -40 -27 -59 -49 -63 -21 -4 -24 -1 -21 28 1 18 7 31 12 28 13
-5 50 37 50 57 1 8 5 38 10 65 11 56 13 45 17 -87z m-1191 39 c-13 -13 -15 31
-3 60 5 14 8 10 10 -16 2 -18 -1 -38 -7 -44z m2507 61 c-3 -7 -15 -14 -29 -16
-24 -4 -24 -3 -4 12 24 19 38 20 33 4z m-1488 -30 c0 -4 -5 -10 -10 -13 -6 -4
-8 -11 -5 -16 4 -5 2 -9 -3 -9 -9 0 -22 23 -22 39 0 4 9 7 20 7 11 0 20 -4 20
-8z m2328 -5 c10 -20 5 -43 -9 -43 -5 0 -9 10 -9 21 0 19 -4 21 -40 16 -22 -3
-40 -1 -40 3 0 24 86 27 98 3z m-797 -60 c-9 -16 -10 -15 -11 9 0 14 3 35 8
45 6 15 8 14 10 -9 2 -15 -1 -35 -7 -45z m-264 35 c-3 -8 -6 -5 -6 6 -1 11 2
17 5 13 3 -3 4 -12 1 -19z m817 -20 c-9 -9 -13 -22 -9 -27 3 -7 -3 -11 -17
-12 -13 0 -18 -3 -12 -5 7 -3 10 -14 7 -24 -3 -11 -9 -17 -14 -14 -5 3 -17 -2
-26 -12 -16 -16 -18 -15 -25 12 -11 41 -1 64 28 64 14 0 24 6 24 14 0 16 12
22 41 22 17 0 17 -2 3 -18z m-1979 -28 c-3 -5 -13 -10 -21 -10 -8 0 -14 5 -14
10 0 6 9 10 21 10 11 0 17 -4 14 -10z m-50 -142 c-4 -73 -9 -135 -12 -138 -2
-2 -9 2 -14 10 -10 15 -4 233 6 251 4 5 11 9 17 9 7 0 8 -41 3 -132z m1905
102 c0 -5 -2 -10 -4 -10 -3 0 -8 5 -11 10 -3 6 -1 10 4 10 6 0 11 -4 11 -10z
m-2683 -22 c-3 -8 -6 -5 -6 6 -1 11 2 17 5 13 3 -3 4 -12 1 -19z m1419 -125
c-7 -188 -16 -282 -29 -290 -7 -4 -8 55 -4 183 7 196 13 254 28 254 6 0 7 -63
5 -147z m1665 58 c-6 -39 -11 -103 -11 -143 l0 -73 -46 -1 c-25 -1 -51 -7 -57
-14 -9 -9 1 -11 49 -5 l61 7 8 -67 c7 -65 0 -100 -12 -57 -3 12 -10 22 -15 22
-5 0 -6 -4 -3 -10 10 -16 -23 -12 -50 6 -20 13 -25 14 -25 3 -1 -10 -4 -8 -11
4 -12 21 -29 22 -29 3 0 -8 -8 -15 -17 -14 -10 0 -47 -4 -83 -10 -54 -8 -68
-7 -82 6 -33 28 -22 39 35 35 42 -3 48 -1 28 7 -23 10 -23 11 -6 30 23 26 9
25 -33 0 -18 -11 -34 -20 -36 -20 -2 0 -6 18 -10 40 -8 50 14 80 59 80 16 0
43 7 59 15 55 29 44 9 -33 -57 -12 -10 -11 -13 5 -18 35 -13 97 33 88 64 -3
14 -2 17 4 8 12 -17 38 13 46 55 4 17 14 34 22 37 8 3 14 13 14 23 0 21 83
138 88 123 2 -5 -1 -41 -7 -79z m-251 59 c0 -5 -3 -10 -7 -10 -13 0 -67 -50
-61 -56 4 -3 20 2 38 11 50 26 44 13 -16 -34 -32 -25 -52 -47 -48 -54 5 -8 3
-9 -4 -2 -6 6 -12 35 -14 65 -3 52 -2 54 27 63 17 5 37 13 45 18 21 11 40 11
40 -1z m-680 -55 c0 -8 -2 -15 -4 -15 -2 0 -6 7 -10 15 -3 8 -1 15 4 15 6 0
10 -7 10 -15z m760 11 c0 -2 -7 -7 -16 -10 -8 -3 -12 -2 -9 4 6 10 25 14 25 6z
m-2044 -21 c-4 -11 2 -15 23 -15 16 0 31 -7 34 -15 9 -21 -5 -26 -45 -14 -26
7 -37 16 -40 34 -4 20 -1 25 14 25 14 0 18 -5 14 -15z m659 -117 c-9 -175 -23
-238 -24 -112 -1 119 10 244 21 244 6 0 7 -54 3 -132z m1315 66 c-98 -102
-121 -124 -115 -105 3 11 1 22 -5 26 -7 4 -5 11 5 21 8 8 18 21 22 28 13 22
84 66 106 66 19 0 17 -4 -13 -36z m-846 -98 c-2 -56 -7 -135 -10 -176 -4 -41
-6 -87 -5 -102 3 -35 -11 -36 -29 -4 -9 18 -11 67 -8 195 4 148 7 173 23 191
28 31 34 10 29 -104z m-194 93 c0 -11 -4 -17 -10 -14 -5 3 -10 13 -10 21 0 8
5 14 10 14 6 0 10 -9 10 -21z m597 -101 c-3 -22 -4 -21 -11 4 -5 16 -5 36 0
45 7 16 8 15 11 -4 3 -13 3 -33 0 -45z m293 -13 c0 -49 -4 -75 -11 -75 -8 0
-8 -5 1 -15 12 -15 11 -48 -6 -255 -8 -101 -9 -105 -33 -81 -35 35 -41 58 -41
153 0 139 23 279 51 317 12 17 26 31 31 31 4 0 8 -34 8 -75z m-1740 36 c0 -6
-4 -13 -10 -16 -5 -3 -10 1 -10 9 0 9 5 16 10 16 6 0 10 -4 10 -9z m1905 -71
c3 -5 1 -10 -4 -10 -6 0 -11 5 -11 10 0 6 2 10 4 10 3 0 8 -4 11 -10z m391
-16 c-3 -9 -6 -22 -6 -30 0 -19 -19 -18 -26 1 -7 16 12 45 28 45 6 0 7 -7 4
-16z m-893 -9 c-3 -9 -8 -14 -10 -11 -3 3 -2 9 2 15 9 16 15 13 8 -4z m-1416
-37 c-3 -8 -6 -5 -6 6 -1 11 2 17 5 13 3 -3 4 -12 1 -19z m842 -60 c1 -5 -3
-8 -9 -8 -5 0 -10 12 -9 28 0 24 1 25 9 7 5 -11 9 -23 9 -27z m1166 -28 c3 -5
0 -10 -7 -11 -7 0 4 -9 26 -19 l39 -18 -32 -7 c-66 -14 -213 16 -189 40 17 17
154 30 163 15z m-578 -112 c-3 -20 -4 -21 -11 -5 -5 9 -5 29 0 45 7 25 8 26
11 5 3 -13 3 -33 0 -45z m563 41 c180 -11 200 -15 200 -39 0 -25 -30 -25 -176
-6 -92 12 -194 45 -194 62 0 3 8 3 18 -1 9 -4 78 -12 152 -16z m-1160 -63 c0
-3 -4 -8 -10 -11 -5 -3 -10 -1 -10 4 0 6 5 11 10 11 6 0 10 -2 10 -4z m190
-55 c0 -11 -4 -23 -10 -26 -6 -4 -10 5 -10 19 0 14 5 26 10 26 6 0 10 -9 10
-19z m1240 -96 c0 -14 -4 -25 -10 -25 -11 0 -14 33 -3 43 11 11 13 8 13 -18z
m-848 -17 c-7 -7 -12 -8 -12 -2 0 14 12 26 19 19 2 -3 -1 -11 -7 -17z m288
-82 c0 -3 -4 -8 -10 -11 -5 -3 -10 -1 -10 4 0 6 5 11 10 11 6 0 10 -2 10 -4z
m550 -141 c0 -8 -4 -15 -10 -15 -5 0 -10 7 -10 15 0 8 5 15 10 15 6 0 10 -7
10 -15z"/>
<path d="M3815 1590 c-3 -6 1 -7 9 -4 18 7 21 14 7 14 -6 0 -13 -4 -16 -10z"/>
<path d="M4126 1353 c-6 -14 -5 -15 5 -6 7 7 10 15 7 18 -3 3 -9 -2 -12 -12z"/>
<path d="M4100 1309 c-11 -19 -10 -20 9 -9 12 6 21 15 21 20 0 18 -19 11 -30
-11z"/>
<path d="M4017 1213 c-12 -11 -8 -23 8 -23 8 0 15 7 15 15 0 16 -12 20 -23 8z"/>
<path d="M4055 1210 c8 -13 75 -13 95 0 11 7 -2 10 -43 10 -36 0 -56 -4 -52
-10z"/>
<path d="M3052 1285 c0 -16 2 -22 5 -12 2 9 2 23 0 30 -3 6 -5 -1 -5 -18z"/>
<path d="M3721 1133 c0 -75 4 -111 9 -98 12 29 12 215 0 215 -6 0 -10 -45 -9
-117z"/>
<path d="M4798 2210 c-9 -10 -12 -20 -7 -22 5 -2 11 -13 12 -26 3 -41 17 -22
17 23 0 25 -1 45 -2 44 -2 0 -11 -9 -20 -19z"/>
<path d="M3466 2205 c-3 -9 0 -15 9 -15 8 0 15 7 15 15 0 8 -4 15 -9 15 -5 0
-11 -7 -15 -15z"/>
<path d="M881 2196 c-12 -14 -5 -46 10 -46 9 0 29 33 29 49 0 16 -25 14 -39
-3z"/>
<path d="M1781 2179 c-6 -18 -9 -34 -7 -36 2 -2 9 10 15 28 6 18 9 34 7 36 -2
2 -9 -10 -15 -28z"/>
<path d="M1713 2145 l-22 -50 -1 38 c0 44 -20 49 -44 12 -9 -14 -23 -25 -31
-25 -19 0 -20 -40 -2 -64 36 -49 132 32 125 105 l-3 34 -22 -50z"/>
<path d="M2455 2180 c-3 -5 -1 -10 4 -10 6 0 11 5 11 10 0 6 -2 10 -4 10 -3 0
-8 -4 -11 -10z"/>
<path d="M3453 2147 c-37 -21 -40 -29 -16 -48 13 -11 17 -11 21 -1 2 7 10 19
19 27 8 8 13 21 11 28 -2 10 -11 9 -35 -6z"/>
<path d="M2885 2150 c-3 -5 -1 -10 4 -10 6 0 11 5 11 10 0 6 -2 10 -4 10 -3 0
-8 -4 -11 -10z"/>
<path d="M3720 2140 c-9 -16 -8 -18 5 -14 8 4 15 12 15 20 0 20 -7 17 -20 -6z"/>
<path d="M1055 2121 c-8 -17 -12 -31 -8 -31 9 0 35 52 29 58 -3 2 -12 -10 -21
-27z"/>
<path d="M4680 2141 c0 -12 34 -22 68 -19 26 3 30 17 5 16 -10 0 -30 3 -45 7
-18 5 -28 3 -28 -4z"/>
<path d="M1470 2114 c-14 -36 -13 -39 10 -19 21 19 27 45 10 45 -6 0 -15 -12
-20 -26z"/>
<path d="M2050 2126 c0 -7 -7 -19 -15 -26 -12 -10 -13 -16 -5 -24 8 -8 13 -7
20 4 10 16 14 60 5 60 -3 0 -5 -6 -5 -14z"/>
<path d="M2500 2129 c0 -5 5 -7 10 -4 6 3 10 8 10 11 0 2 -4 4 -10 4 -5 0 -10
-5 -10 -11z"/>
<path d="M2862 2102 c-18 -14 -20 -20 -10 -30 9 -9 16 -8 30 5 18 16 25 43 11
43 -5 0 -18 -8 -31 -18z"/>
<path d="M1103 2081 c-18 -15 -33 -30 -33 -33 0 -3 11 -13 25 -22 24 -16 26
-16 44 15 17 27 18 70 2 69 -3 -1 -21 -13 -38 -29z"/>
<path d="M2411 2089 c-16 -13 -18 -19 -8 -19 15 0 43 27 36 34 -2 3 -15 -4
-28 -15z"/>
<path d="M2482 2088 c-16 -16 -15 -28 3 -28 8 0 15 2 15 4 0 2 3 11 6 20 7 19
-7 21 -24 4z"/>
<path d="M3700 2085 c11 -13 10 -14 -3 -9 -25 9 -12 -37 15 -58 27 -20 73 -32
88 -23 13 8 13 45 1 45 -6 0 -30 14 -54 30 -49 33 -66 38 -47 15z"/>
<path d="M1040 2069 c0 -5 5 -7 10 -4 6 3 10 8 10 11 0 2 -4 4 -10 4 -5 0 -10
-5 -10 -11z"/>
<path d="M785 2050 c-15 -16 -17 -25 -9 -38 11 -17 63 -47 68 -40 2 1 1 23 -3
48 -7 51 -27 62 -56 30z"/>
<path d="M3051 2053 c10 -11 10 -14 2 -9 -9 5 -13 0 -13 -13 0 -12 0 -23 0
-26 0 -3 2 -5 5 -5 3 0 19 -7 35 -15 29 -15 31 -15 40 10 13 35 13 35 -7 28
-10 -3 -15 -2 -10 2 4 5 -5 17 -20 27 -35 23 -50 23 -32 1z"/>
<path d="M4894 2034 c-17 -41 -11 -57 11 -28 14 18 21 64 9 64 -3 0 -12 -16
-20 -36z"/>
<path d="M2170 2042 c0 -36 86 -56 110 -27 11 13 8 15 -16 15 -16 0 -38 7 -48
15 -27 20 -46 19 -46 -3z"/>
<path d="M3585 2050 c-9 -15 24 -70 78 -127 47 -49 77 -66 77 -43 0 6 -4 10
-9 10 -5 0 -32 22 -60 49 -34 34 -52 59 -56 85 -7 35 -18 45 -30 26z"/>
<path d="M2644 2035 c-3 -8 1 -21 9 -30 20 -19 24 -19 30 4 8 32 -28 56 -39
26z"/>
<path d="M2746 2041 c-4 -7 -5 -15 -2 -18 9 -9 19 4 14 18 -4 11 -6 11 -12 0z"/>
<path d="M2370 2030 c0 -5 5 -10 10 -10 6 0 10 5 10 10 0 6 -4 10 -10 10 -5 0
-10 -4 -10 -10z"/>
<path d="M3680 2015 c10 -12 10 -19 2 -27 -18 -18 -14 -40 6 -36 9 2 23 -3 30
-12 11 -13 13 -13 26 3 7 9 21 17 30 17 10 0 14 5 11 10 -3 6 -16 10 -29 10
-12 0 -33 11 -46 25 -25 27 -51 35 -30 10z"/>
<path d="M1617 1988 c-6 -42 -4 -44 13 -13 10 18 10 29 3 36 -7 7 -12 1 -16
-23z"/>
<path d="M2705 2009 c-4 -6 -5 -12 -2 -15 2 -3 7 2 10 11 7 17 1 20 -8 4z"/>
<path d="M3238 2006 c-13 -9 -14 -16 -6 -24 9 -9 16 -8 30 5 33 30 12 47 -24
19z"/>
<path d="M2363 1993 c-16 -6 -17 -33 -3 -33 11 0 26 28 19 34 -2 2 -10 1 -16
-1z"/>
<path d="M3410 1988 c-26 -10 -40 -25 -40 -46 0 -10 5 -10 22 -1 17 9 24 8 34
-5 11 -15 13 -14 19 14 9 39 -2 51 -35 38z"/>
<path d="M4242 1989 c2 -6 8 -10 13 -10 5 0 11 4 13 10 2 6 -4 11 -13 11 -9 0
-15 -5 -13 -11z"/>
<path d="M2448 1974 c-16 -8 -28 -23 -28 -33 0 -10 -6 -24 -13 -30 -21 -17
-21 -96 0 -116 16 -16 19 -12 49 66 32 82 42 129 27 129 -5 -1 -20 -8 -35 -16z"/>
<path d="M2580 1980 c0 -5 5 -10 11 -10 5 0 7 5 4 10 -3 6 -8 10 -11 10 -2 0
-4 -4 -4 -10z"/>
<path d="M2987 1960 c23 -40 71 -85 80 -77 3 4 -12 23 -35 43 -23 19 -42 42
-42 50 0 8 -5 14 -11 14 -5 0 -2 -14 8 -30z"/>
<path d="M3042 1974 c-18 -19 -15 -37 5 -30 9 4 20 1 24 -6 7 -10 12 -9 26 5
16 15 16 17 1 17 -9 0 -23 6 -30 13 -11 12 -16 12 -26 1z"/>
<path d="M4136 1956 c-65 -38 -93 -62 -83 -73 10 -10 147 58 158 79 21 39 1
37 -75 -6z"/>
<path d="M2635 1969 c-12 -19 5 -23 22 -6 16 16 16 17 1 17 -9 0 -20 -5 -23
-11z"/>
<path d="M2828 1973 c-9 -2 -19 -15 -22 -28 -4 -14 -16 -34 -28 -45 -12 -11
-16 -20 -10 -20 21 0 13 -21 -17 -49 -36 -34 -34 -71 4 -64 32 7 42 -15 10
-23 -14 -3 -30 -14 -35 -24 -16 -29 -12 -33 15 -16 32 21 34 20 29 -6 -4 -21
-4 -21 4 -3 5 11 18 47 27 80 10 33 24 71 31 85 16 31 34 89 34 106 0 14 -10
16 -42 7z"/>
<path d="M998 1940 c-5 -35 7 -41 16 -7 8 30 7 37 -3 37 -5 0 -11 -13 -13 -30z"/>
<path d="M1365 1949 c-4 -6 -5 -12 -2 -15 2 -3 7 2 10 11 7 17 1 20 -8 4z"/>
<path d="M2610 1940 c6 -11 16 -20 22 -20 6 0 3 9 -7 20 -10 11 -20 20 -22 20
-2 0 1 -9 7 -20z"/>
<path d="M4720 1916 c0 -21 20 -30 33 -17 9 9 8 14 -3 21 -21 14 -30 12 -30
-4z"/>
<path d="M3993 1870 c-41 -25 -44 -45 -5 -36 26 7 52 31 52 48 0 13 -12 10
-47 -12z"/>
<path d="M1589 1764 c-7 -64 1 -136 15 -131 12 4 10 75 -3 137 l-8 35 -4 -41z"/>
<path d="M3200 1760 c0 -5 -6 -7 -14 -4 -7 3 -20 -6 -30 -20 -21 -33 -20 -45
3 -43 11 0 17 6 14 14 -6 15 13 18 20 3 3 -6 4 -5 3 2 -1 7 3 19 11 26 15 16
17 32 3 32 -5 0 -10 -4 -10 -10z"/>
<path d="M2727 1652 c-10 -21 -17 -42 -16 -48 2 -5 -5 -25 -15 -44 -19 -35
-19 -35 1 -17 11 9 27 17 35 17 12 0 15 7 11 23 -3 16 -2 18 5 8 7 -10 11 -1
13 33 7 77 -6 87 -34 28z"/>
<path d="M1646 1655 c-9 -26 -7 -32 5 -12 6 10 9 21 6 23 -2 3 -7 -2 -11 -11z"/>
<path d="M2721 1527 c-13 -21 -12 -21 5 -5 10 10 16 20 13 22 -3 3 -11 -5 -18
-17z"/>
<path d="M2377 1493 c-16 -15 -6 -33 18 -33 27 0 32 9 13 28 -14 14 -22 15
-31 5z"/>
<path d="M2680 1490 c-8 -5 -12 -11 -9 -14 3 -3 14 1 25 9 21 16 8 20 -16 5z"/>
<path d="M3120 1450 c0 -5 5 -10 10 -10 6 0 10 5 10 10 0 6 -4 10 -10 10 -5 0
-10 -4 -10 -10z"/>
<path d="M838 1403 c7 -3 16 -2 19 1 4 3 -2 6 -13 5 -11 0 -14 -3 -6 -6z"/>
<path d="M3214 1369 c-19 -22 -19 -22 4 -10 12 6 22 16 22 21 0 15 -5 12 -26
-11z"/>
<path d="M3295 1350 c-28 -7 -27 -8 13 -9 23 0 42 4 42 9 0 11 -11 11 -55 0z"/>
<path d="M4767 1094 c-9 -10 -7 -273 3 -304 15 -50 25 11 25 152 0 127 -8 171
-28 152z"/>
</g>
</svg>
